<svg xmlns="http://www.w3.org/2000/svg" width="129.996" height="23.095" viewBox="0 0 129.996 23.095">
    <path d="M42.868 23.095V4.776h3.117v1.74a4.827 4.827 0 0 1 4.013-2.078 6.685 6.685 0 0 1 6.486 6.99 6.688 6.688 0 0 1-6.486 6.994 4.756 4.756 0 0 1-3.766-1.715v6.388zm3.368-13.661v3.989a3.69 3.69 0 0 0 3.174 1.852 3.561 3.561 0 0 0 3.652-3.847 3.563 3.563 0 0 0-3.652-3.847 3.69 3.69 0 0 0-3.174 1.853zm-17.838 3.154V4.764h3.444v7.824a2.769 2.769 0 1 0 5.538 0V4.764h3.444v7.824a6.213 6.213 0 1 1-12.426 0zm28.734 3.417 1.882-2.443a6.254 6.254 0 0 0 4.016 1.908c1.377 0 2.526-.391 2.526-1.207 0-.868-.618-1.038-2.64-1.459-2.64-.562-4.942-1.685-4.942-4.213 0-2.076 2.078-4.154 5.727-4.154a8.493 8.493 0 0 1 5 1.626l-1.685 2.474a6.181 6.181 0 0 0-3.318-1.152c-1.263 0-2.413.448-2.413 1.263s.9 1.013 3.145 1.49c2.64.561 4.521 1.429 4.521 4.183 0 2.276-2.416 4.1-5.81 4.1a8.3 8.3 0 0 1-6.009-2.415zm52.4-.421-.069-.109 1.385-1.184.091.157a4.94 4.94 0 0 0 4.2 2.2c1.183 0 3.19-.439 3.19-2.1 0-1.332-1.43-1.756-3.448-2.211-3.227-.71-4.665-1.933-4.665-3.967a3.5 3.5 0 0 1 1.252-2.605 5.165 5.165 0 0 1 3.409-1.165 6.409 6.409 0 0 1 4.692 1.847l.087.1-1.153 1.29-.114-.122a5.08 5.08 0 0 0-3.513-1.384c-1.7 0-2.882.838-2.882 2.04 0 1.426 1.476 1.857 3.729 2.355 2.295.513 4.415 1.328 4.415 3.824 0 2.515-2.518 3.83-5.006 3.83a6.754 6.754 0 0 1-5.602-2.796zm-10.934 2.5V0h3.372v18.084zm-6.542 0V0h3.372v18.084zm-6.433 0V6.251h3.365v11.833zm-6.224 0-5.081-6.549v6.549H70.95V0h3.368v9.289l4.031-4.509h4.349l-5.1 5.545 6.235 7.759zm26.178-.041V6.057h1.76v11.986zm17.906-3.987V6.44h-2.04V4.795h2.04V.444h1.756v4.351h4.589V6.44h-4.588v7.336c0 1.672.687 2.487 2.093 2.487a3.806 3.806 0 0 0 1.829-.565l.147-.1.687 1.545-.114.067a5.681 5.681 0 0 1-2.6.778 3.59 3.59 0 0 1-3.799-3.932zM85.089 2.393a2.217 2.217 0 0 1 4.433 0 2.217 2.217 0 1 1-4.433 0zm20.094-.044a1.27 1.27 0 1 1 1.27 1.275 1.271 1.271 0 0 1-1.27-1.275zM9.888 22.978V17.25a5.941 5.941 0 0 0 1.65.235 5.856 5.856 0 0 0 1.7-.25v5.736a11.481 11.481 0 0 1-1.7.124 11.965 11.965 0 0 1-1.65-.117zm4.9-5.755 4.748 2.719a11.493 11.493 0 0 1-2.252 1.677 11.614 11.614 0 0 1-2.571 1.08zm-8.97 4.4a11.729 11.729 0 0 1-2.253-1.677l4.749-2.727.08 5.477a11.723 11.723 0 0 1-2.576-1.077zm9.767-5.732a5.958 5.958 0 0 0 1.695-2.872l4.935 2.908a11.4 11.4 0 0 1-1.7 2.864zm-14.728.028 4.935-2.908a5.91 5.91 0 0 0 1.692 2.863l-4.938 2.91a11.593 11.593 0 0 1-1.689-2.865zM18 11.561l4.733-2.788a11.5 11.5 0 0 1 0 5.578zm-18 0a11.5 11.5 0 0 1 .338-2.772l4.715 2.78-4.712 2.775A11.443 11.443 0 0 1 0 11.557zm.849-4.354a11.447 11.447 0 0 1 1.693-2.868l4.933 2.906a5.944 5.944 0 0 0-1.687 2.874zm14.743.03 4.935-2.906a11.525 11.525 0 0 1 1.692 2.86l-4.939 2.913a5.92 5.92 0 0 0-1.687-2.867zM14.713.46a11.577 11.577 0 0 1 4.823 2.759l-4.748 2.717zM3.565 3.219A11.564 11.564 0 0 1 8.394.46l-.08 5.477zm7.972 2.416a5.8 5.8 0 0 0-1.65.235V.14a11.4 11.4 0 0 1 1.651-.121 12.023 12.023 0 0 1 1.7.124v5.736a5.987 5.987 0 0 0-1.7-.246z"/>
</svg>
